:SAMPLES-PER-SECOND 30
:FULLY-SPECIFIED
:DEGREES
820
root  65.7392 33.474 4.59614 176.496 84.9431 158.531
RightUpLeg  -60.4603 -18.5453 0.770512
RightLeg  53.5351 8.40611 11.6393
RightFoot  -8.0096 0.04317 -3.34551
RightToes  -1.81608e-008 0 -3.6325e-017
Spine  34.5744 -1.66527 -2.43262
Spine1  -13.163 -3.09032 1.91779
HEad  -38.2579 -1.34587 -7.0672
LeftShoulder1  0.75917 -2.22985 -5.43475
LeftArm  -82.4903 -79.9305 30.3442
LeftForeArm  -18.7133 -3.66281 0.173804
LeftHand  -0.481905 13.0085 -5.99075
RightShoulder  0.279857 0.511984 -1.69942
RightArm  -65.0782 73.2313 -17.049
RightForeArm  -40.8788 -4.50204 -1.16237
RightHand  0.17546 2.50092 2.38675
LeftUpLeg  -19.0412 21.7535 27.4457
LeftLeg  -4.75728 -5.03554 0.917748
LeftFoot  10.3389 6.11453 -31.5307
LeftToes  1.81866e-011 -6.13092e-011 2.52013e-011
821
root  65.7356 33.3633 4.79245 174.385 85.3017 156.339
RightUpLeg  -61.1601 -18.8983 1.57179
RightLeg  54.2895 8.61131 12.2602
RightFoot  -8.23605 0.0566504 -4.13429
RightToes  -1.81608e-008 0 -3.6325e-017
Spine  35.1061 -1.5906 -2.02322
Spine1  -13.3007 -2.88993 1.52061
HEad  -39.0672 -1.73215 -7.13686
LeftShoulder1  0.776689 -2.50771 -5.06725
LeftArm  -84.4744 -79.2478 32.8861
LeftForeArm  -20.9632 -2.74191 0.454746
LeftHand  -0.553479 13.1144 -6.93884
RightShoulder  0.258239 0.483522 -2.2711
RightArm  -67.0369 73.4013 -19.7643
RightForeArm  -43.5839 -4.46277 -0.780337
RightHand  0.176488 3.20889 2.14648
LeftUpLeg  -18.7456 21.8717 27.7735
LeftLeg  -4.94962 -4.69436 0.980023
LeftFoot  10.4329 6.18356 -31.7361
LeftToes  1.81866e-011 -6.13092e-011 2.52013e-011
822
root  65.7297 33.3019 4.93279 175.212 85.6494 156.961
RightUpLeg  -61.8798 -19.6735 2.84771
RightLeg  54.6913 9.20136 13.2851
RightFoot  -8.13721 0.0819552 -4.89105
RightToes  -1.81608e-008 0 -3.6325e-017
Spine  35.4315 -1.53104 -1.80056
Spine1  -13.2531 -2.8344 1.83836
HEad  -39.9727 -1.34587 -7.63385
LeftShoulder1  0.761102 -2.53324 -4.73476
LeftArm  -85.1629 -78.4897 34.1566
LeftForeArm  -22.6687 -2.65185 0.575395
LeftHand  -0.584004 12.9598 -7.53496
RightShoulder  0.233165 0.202733 -2.48344
RightArm  -70.7761 73.9225 -21.6947
RightForeArm  -43.6209 -4.35351 -1.39068
RightHand  0.160305 2.30887 2.2271
LeftUpLeg  -18.6526 22.0839 28.1607
LeftLeg  -5.12881 -4.41185 1.01303
LeftFoot  10.5564 6.21395 -31.7116
LeftToes  1.81866e-011 -6.13092e-011 2.52013e-011
823
root  65.685 33.2685 5.00134 175.512 85.8428 156.937
RightUpLeg  -62.5227 -19.8724 3.47711
RightLeg  54.7813 9.44441 13.6781
RightFoot  -7.87781 0.10447 -5.20542
RightToes  -1.81608e-008 0 -3.6325e-017
Spine  35.5919 -1.85865 -0.819424
Spine1  -13.4839 -2.83587 0.768016
HEad  -40.2801 -1.41917 -7.46879
LeftShoulder1  0.787499 -3.12549 -3.8914
LeftArm  -82.8341 -78.0239 31.1863
LeftForeArm  -23.2174 -3.46204 0.991137
LeftHand  -0.576383 12.6412 -7.78397
RightShoulder  0.225511 0.185582 -2.68858
RightArm  -70.1233 73.7631 -19.4615
RightForeArm  -44.0808 -4.24747 -1.9505
RightHand  0.145205 1.51171 2.30285
LeftUpLeg  -19.0842 22.2273 28.2123
LeftLeg  -4.7977 -4.15026 1.01222
LeftFoot  10.6462 6.21341 -31.585
LeftToes  1.81866e-011 -6.13092e-011 2.52013e-011
824
root  65.6735 33.2395 5.04955 175.075 85.9475 156.605
RightUpLeg  -62.6472 -20.1008 3.78888
RightLeg  55.0253 9.57237 13.9862
RightFoot  -7.71908 0.127126 -5.66814
RightToes  -1.81608e-008 0 -3.6325e-017
Spine  35.8002 -1.9157 -0.765427
Spine1  -13.46 -2.82458 0.933981
HEad  -40.4391 -0.928602 -8.0426
LeftShoulder1  0.770739 -3.02668 -3.81518
LeftArm  -82.7633 -77.9917 30.3301
LeftForeArm  -22.7387 -3.68036 1.43783
LeftHand  -0.56053 12.2239 -8.02723
RightShoulder  0.217394 0.232826 -3.03032
RightArm  -68.5812 73.933 -19.3941
RightForeArm  -46.3639 -4.23753 -1.20515
RightHand  0.177474 2.69247 2.34427
LeftUpLeg  -19.0646 22.6794 28.4164
LeftLeg  -4.4762 -4.48824 0.632029
LeftFoot  10.6021 6.1575 -31.3773
LeftToes  1.81866e-011 -6.13092e-011 2.52013e-011
825
root  65.6373 33.2891 5.00444 173.215 86.2563 154.724
RightUpLeg  -62.3811 -19.3321 3.32135
RightLeg  54.5008 9.41998 13.5025
RightFoot  -7.58677 0.111742 -4.96281
RightToes  -1.81608e-008 0 -3.6325e-017
Spine  35.7887 -1.86141 -0.724825
Spine1  -13.1636 -2.83718 1.36988
HEad  -40.7853 -0.711 -8.77833
LeftShoulder1  0.755565 -2.68201 -4.27515
LeftArm  -81.7575 -77.8627 30.2582
LeftForeArm  -25.9337 -2.89757 1.00936
LeftHand  -0.500195 12.757 -6.49108
RightShoulder  0.217194 0.262498 -3.08566
RightArm  -66.3035 73.8241 -17.1129
RightForeArm  -46.4825 -3.26259 -0.983134
RightHand  0.185365 2.3444 2.59088
LeftUpLeg  -18.8777 22.6114 28.3765
LeftLeg  -4.53555 -4.0745 0.613336
LeftFoot  10.7106 6.14766 -31.1819
LeftToes  1.81866e-011 -6.13092e-011 2.52013e-011
826
root  65.6065 33.345 4.9186 169.28 86.2675 151.115
RightUpLeg  -61.7412 -18.8563 2.44826
RightLeg  54.1027 9.24341 13.0621
RightFoot  -7.55964 0.0971047 -4.48379
RightToes  -1.81608e-008 0 -3.6325e-017
Spine  35.8426 -1.85025 -0.957722
Spine1  -12.8434 -2.85629 1.7498
HEad  -40.533 -0.223863 -9.15037
LeftShoulder1  0.760718 -2.62531 -4.49821
LeftArm  -76.5261 -77.3332 25.1899
LeftForeArm  -26.9072 -4.05003 0.714064
LeftHand  -0.525529 12.755 -6.90092
RightShoulder  0.241118 0.639644 -3.02728
RightArm  -62.4886 73.0216 -12.5398
RightForeArm  -45.6325 -0.613109 -0.944131
RightHand  0.216274 2.73999 2.88106
LeftUpLeg  -18.7516 22.4197 28.1049
LeftLeg  -4.12259 -4.09351 0.560376
LeftFoot  10.5147 6.04195 -30.9381
LeftToes  1.81866e-011 -6.13092e-011 2.52013e-011
827
root  65.5407 33.4385 4.772 167.885 86.2912 149.715
RightUpLeg  -61.3583 -18.3924 1.79915
RightLeg  53.3151 9.12287 12.5311
RightFoot  -7.15278 0.0984936 -4.02444
RightToes  -1.81608e-008 0 -3.6325e-017
Spine  35.511 -1.92414 -0.630608
Spine1  -12.2667 -2.83313 1.6265
HEad  -40.4554 -0.0250268 -9.49721
LeftShoulder1  0.799032 -2.7755 -4.85172
LeftArm  -72.3083 -76.7126 21.6113
LeftForeArm  -26.4169 -5.52642 0.160463
LeftHand  -0.527723 12.0056 -7.74824
RightShoulder  0.266086 0.63861 -2.31984
RightArm  -60.3614 72.572 -10.7701
RightForeArm  -46.3446 0.949179 -0.565363
RightHand  0.200806 3.06544 2.52739
LeftUpLeg  -18.9267 22.2946 27.7737
LeftLeg  -3.94117 -3.99059 0.456821
LeftFoot  10.6036 5.97869 -30.5137
LeftToes  1.81866e-011 -6.13092e-011 2.52013e-011
828
root  65.4434 33.5581 4.56697 169.321 86.3699 151.222
RightUpLeg  -60.7112 -17.706 1.06324
RightLeg  52.1888 8.95805 11.8112
RightFoot  -6.60622 0.0892856 -3.2302
RightToes  -1.81608e-008 0 -3.6325e-017
Spine  35.4981 -2.02218 0.17221
Spine1  -12.1887 -2.69049 1.14429
HEad  -40.5758 -0.00473455 -9.80576
LeftShoulder1  0.844849 -2.97426 -5.21504
LeftArm  -68.969 -76.5124 19.0094
LeftForeArm  -27.1582 -7.01235 -0.645961
LeftHand  -0.489479 12.1251 -6.97987
RightShoulder  0.280636 0.38976 -1.42839
RightArm  -58.1761 71.9591 -8.91955
RightForeArm  -46.5371 2.4694 -0.260399
RightHand  0.201308 3.02188 2.54797
LeftUpLeg  -19.191 22.2679 27.5318
LeftLeg  -3.61203 -3.96946 0.340953
LeftFoot  10.7045 5.91663 -30.0793
LeftToes  1.81866e-011 -6.13092e-011 2.52013e-011
829
root  65.3804 33.6438 4.35097 169.895 86.2384 151.859
RightUpLeg  -60.2346 -17.5033 0.366723
RightLeg  51.4427 8.89054 11.415
RightFoot  -6.21102 0.0825068 -2.78317
RightToes  -1.81608e-008 0 -3.6325e-017
Spine  35.24 -2.02337 0.353277
Spine1  -11.9696 -2.57133 1.15454
HEad  -41.1675 -0.425109 -10.2715
LeftShoulder1  0.872019 -3.25687 -5.05035
LeftArm  -64.7474 -76.0767 14.3192
LeftForeArm  -27.3092 -8.76352 -0.814828
LeftHand  -0.453152 11.8735 -6.65036
RightShoulder  0.292514 0.373159 -1.05093
RightArm  -55.5273 70.7262 -6.07286
RightForeArm  -47.2248 4.62032 -0.131336
RightHand  0.217842 3.47987 2.60403
LeftUpLeg  -19.7682 22.2034 27.1375
LeftLeg  -2.74948 -4.32599 0.200451
LeftFoot  10.2783 5.76408 -29.8996
LeftToes  1.81866e-011 -6.13092e-011 2.52013e-011
830
root  65.2969 33.7624 4.10778 171.113 86.1272 153.354
RightUpLeg  -59.3136 -17.1676 -0.48045
RightLeg  50.3186 8.80913 10.8695
RightFoot  -5.77846 0.0471841 -1.77365
RightToes  -1.81608e-008 0 -3.6325e-017
Spine  35.4615 -1.88252 -0.185123
Spine1  -12.144 -2.65747 2.36085
HEad  -40.5812 0.319986 -10.6217
LeftShoulder1  0.898313 -3.21618 -5.57793
LeftArm  -61.3794 -75.295 11.7136
LeftForeArm  -27.6849 -10.269 -1.4357
LeftHand  -0.417539 11.3928 -6.57089
RightShoulder  0.334733 0.656914 -0.453222
RightArm  -52.6767 69.7833 -3.66069
RightForeArm  -48.375 7.01123 0.36753
RightHand  0.182541 3.41169 2.16098
LeftUpLeg  -20.0807 22.0753 26.7966
LeftLeg  -2.05925 -4.73024 0.109316
LeftFoot  9.89608 5.68469 -30.0166
LeftToes  1.81866e-011 -6.13092e-011 2.52013e-011
